# xmcd
#
# Track frame offsets:
#	150
#	18169
#	32287
#	44013
#	58878
#	75040
#	86768
#	101106
#	114797
#	125653
#	137682
#	156073
#	173530
#	187323
#	207021
#	220018
#	231802
#	242917
#	259138
#	271111
#	289935
#	302333
#
# Disc length: 4248
#
# Revision: 1
# Processed by: cddbd v1.5.1PL0 Copyright (c) Steve Scherf et al.
# Submitted via: dBpowerAMP V4.0
# Normalized: r0:TRMNUM
#
DISCID=26109616
DTITLE=Hank Williams Jr. - Bocephus Box-Disc 1
DYEAR=1900
DGENRE=Country
TTITLE0="Family Tradition" by Hank Williams Jr.
TTITLE1="To Love Somebody" by Hank Williams Jr.
TTITLE2="Old Flame,New Fire" by Hank Williams Jr.
TTITLE3="Only Daddy That'll Walk The Line" by Hank Williams Jr.
TTITLE4="I've Got Right's" by Hank Williams Jr.
TTITLE5="I Just Ain't Been Able" by Hank Williams Jr.
TTITLE6="Whiskey Bent And Hell Bound" by Hank Williams Jr.
TTITLE7="Outlaw Women" by Hank Williams Jr.
TTITLE8="(I Don't Have)Anymore Love Songs" by Hank Williams Jr.
TTITLE9="O.D.'d In Denver" by Hank Williams Jr.
TTITLE10="Come And Go Blues" by Hank Williams Jr.
TTITLE11="The Conversation" by Hank Williams Jr.
TTITLE12="Old Habits" by Hank Williams Jr.
TTITLE13="Kaw-Liga" by Hank Williams Jr.
TTITLE14="If You Don't Like Hank Williams" by Hank Williams Jr.
TTITLE15="Dixie On My Mind" by Hank Williams Jr.
TTITLE16="Texas Women" by Hank Williams Jr.
TTITLE17=Ramblin' Man" by Hank Williams Jr.
TTITLE18="Waitin' On The Tables To Turn" by Hank Williams Jr.
TTITLE19="A Country Boy Can Survive" by Hank Williams Jr.
TTITLE20="Born To Boogie" by Hank Williams Jr.
TTITLE21="Honky Tonk Women" by Hank Williams Jr.
EXTD=Hank Williams Jr.-Bocephus Box-Disc 1
EXTT0=
EXTT1=
EXTT2=
EXTT3=
EXTT4=
EXTT5=
EXTT6=
EXTT7=
EXTT8=
EXTT9=
EXTT10=
EXTT11=
EXTT12=
EXTT13=
EXTT14=
EXTT15=
EXTT16=
EXTT17=
EXTT18=
EXTT19=
EXTT20=
EXTT21=
PLAYORDER=
